<svg width="1227" height="352" viewBox="0 0 1227 352" fill="none" xmlns="http://www.w3.org/2000/svg">
<g clip-path="url(#clip0_425_362)">
<rect width="1227" height="352" fill="white"/>
<path d="M0 7.00001C0 1.47716 4.47715 -3 10 -3H1227V352H10C4.47718 352 0 347.523 0 342V7.00001Z" fill="#D9D9D9"/>
<path d="M0 7.00001C0 1.47716 4.47715 -3 10 -3H1227V352H10C4.47718 352 0 347.523 0 342V7.00001Z" fill="#D9D9D9"/>
<circle cx="319" cy="352" r="25" fill="white"/>
<circle cx="319" cy="-3" r="25" fill="white"/>
<path d="M1227.96 -3.99466L1227.89 35.9218L1191.17 15.9111L1227.96 -3.99466Z" fill="white"/>
<path d="M1227.78 35.1706L1227.72 75.0871L1191 55.0764L1227.78 35.1706Z" fill="white"/>
<path d="M1227.78 74.6777L1227.72 114.594L1191 94.5835L1227.78 74.6777Z" fill="white"/>
<path d="M1227.78 114.185L1227.72 154.101L1191 134.091L1227.78 114.185Z" fill="white"/>
<path d="M1227.78 153.692L1227.72 193.608L1191 173.598L1227.78 153.692Z" fill="white"/>
<path d="M1227.78 193.199L1227.72 233.116L1191 213.105L1227.78 193.199Z" fill="white"/>
<path d="M1227.78 232.706L1227.72 272.623L1191 252.612L1227.78 232.706Z" fill="white"/>
<path d="M1227.78 272.213L1227.72 312.13L1191 292.119L1227.78 272.213Z" fill="white"/>
<path d="M1227.78 311.72L1227.72 351.637L1191 331.626L1227.78 311.72Z" fill="white"/>
</g>
<defs>
<clipPath id="clip0_425_362">
<rect width="1227" height="352" fill="white"/>
</clipPath>
</defs>
</svg>
